<?xml version="1.0" encoding="utf-8"?>
<!-- Generator: Adobe Illustrator 23.0.5, SVG Export Plug-In . SVG Version: 6.00 Build 0)  -->
<svg version="1.1" id="Слой_1" xmlns="http://www.w3.org/2000/svg" xmlns:xlink="http://www.w3.org/1999/xlink" x="0px" y="0px"
	 viewBox="0 0 256 256" style="enable-background:new 0 0 256 256;" xml:space="preserve">
<style type="text/css">
	.st0{fill:#090607;}
	.st1{fill:#DE7E95;}
	.st2{fill:#6C004F;}
	.st3{fill:#555555;}
	.st4{fill:#F1D0C1;}
	.st5{fill:#FCFCFC;}
	.st6{fill:#F900B7;}
	.st7{fill:#008909;}
	.st8{fill:#F8F8F8;}
	.st9{fill:#00E155;}
	.st10{fill:#00B620;}
	.st11{fill:#521122;}
	.st12{fill:#182925;}
	.st13{fill:#220019;}
</style>
<path class="st0" d="M31.7,159.6c1.4-2.8,3.8-4,6.8-4.5c4.8-0.8,5.6-2.7,3.2-6.7c-4.7-7.6-4-13.2,2.6-19c3.7-3.3,5.5-7.3,4.9-12.3
	c-1-9,1.9-16.4,8.1-23c3.3-3.6,5.9-7.9,8.7-11.9c1.6-2.3,3.3-4.6,5.9-5.3c6.1-1.7,10.5-5.8,14.7-10.1c8.8-9.2,19.7-13.2,32-13.9
	c2.8-0.1,4.2-1.1,5.1-3.7c1.6-4.6,3.9-9,4.5-14c0.8-7-1.8-14.3-7.3-16.4c-6.4-2.6-11.5-0.5-16.2,3.4c-6.4,5.2-10,12.8-15.7,18.5
	c-1.4,1.4-0.2,3,0.1,4.5C90.8,55.9,82.7,66,70.8,68C59.6,69.8,50,62.9,48.4,51.8c-1.2-8.2,6.2-17.9,12.9-18.8c-2.9,3-8,6.7-9.2,10.6
	c-1.9,6.1,0.2,13.6,5.1,17.7c4.7,3.8,13,4.3,18.9,0.9c5.9-3.4,10.2-7.7,8.1-17c-3.4,1.1-6.7,3-11.1,1.5c1.8-1,3.1-1.6,4.1-2.5
	c1.7-1.4,4.5-2.5,4.2-4.7c-0.3-2.6-3.1-3.8-5.5-4.8c-4-1.7-8.5-2.9-14.3-1.8c7.7-3.6,16.9-3.9,23.6,2.4c2.8-4.5,6.2-8.4,9.6-12.4
	c4.5-5.3,12.6-9.2,19.4-9.2c4.1,0,8.2,1.4,11,3.5c3.8,2.8,12,12.4,5.1,27.9c-0.5,1.2-1,2.3-1.7,3.4c-2,3-1.6,4,2.4,4.3
	c13.5,1.1,26,4.5,36.9,13.7c4.3,3.6,9.8,6.1,14,10.3c0.6,0.6,1.6,1.1,2.5,1.2c11.1,2,15.8,10.4,19.1,19.8c1,3,2.3,4.9,5.2,6
	c3.4,1.3,6.8,3,8.6,6.5c2.2,4.3,1.9,8.5-1.3,12.5c-4.3,5.3-4.1,6.6,0.4,11.3c7.7,8,6.9,14.8-2.4,21.1c-3.6,2.4-4,5.8-1.1,8.9
	c0.7,0.7,1.7,2,0.6,2.2c-5.4,1.1-1.2,3.6-0.7,5.1c1.1,3.6,0.7,6.5-2.4,8.9c-2.1,1.6-3.8,1.9-5.7-0.4c-1.9-2.3-6.3-1.6-7.8,1
	c-5.1,8.7-8.5,9.2-15.6,2.1c-0.3-0.3-0.7-0.6-1.1-0.9c-2.1,3.9-2,3.9-0.3,7.4c5.2,10.5,9.2,21.4,9,33.3c0,3.1-0.3,6.1-1.5,8.9
	c-2.1,5-6.4,7-11.1,4.5c-2.4-1.3-2.9-0.4-3.5,1.5c-0.2,0.8-0.8,1.5-0.7,2.3c0.5,5.9-1.2,11.2-3.4,16.6c-21.4,0-42.7,0-64.1,0
	c-1.3-2.6-2.3-5-5.5-6.3c-3.9-1.5-5.6-5.4-6.9-9.3c-2.4-7.3-3.3-14.9-2.5-22.6c0.3-3.1,1.1-6.3,0.2-9.8c-3.9,2.3-7.9,2.7-12,1.3
	c-0.2-1.6,0.9-2,1.5-2.6c1.7-2,2.2-3.9-0.2-5.7c-2-1.5-5.5-1.2-6.9,0.5c-3.1,4-12.4,1.7-14.6-3.6c-0.3-0.7-0.3-1.5-0.4-2.2
	c-1.3,0-2.3,0.7-2.3,1.6c0.4,6.1-2.4,3.3-4.7,1.8c-5.6-3.7-5.9-4.7-3.5-11.3c0.4-1,0.8-2.1,0.3-3.6c-1.6,1.6-2.9,3.9-5.6,2.8
	c4.7-2.7,5.6-7.9,2.4-14.4c-4.5-9.2-3.2-12,6.3-15.8c6.3-2.5,7.1-5.9,2.7-11.1c0.1-1,0-2-1-2.6c0.2-2.8-1-6,1.9-7.9
	c2.8-1.8,3.3-3.3,0.5-5.6c-1.2-1-1.8-2.6-2.8-4c-1.3,1.6-2.4,3.4-3.9,4.7c-7.2,6.4-7.8,9-3.4,17.1c2.3,4.2,0.6,8.5-4.1,8.9
	c-3.8,0.3-6.2,2.1-8.5,4.6C31.7,160.9,31.7,160.3,31.7,159.6z M184.1,83.4c-0.3-0.5-0.7-1-1-1.4c0-0.3-0.1-0.5-0.5-0.5
	c-1.3-1.1-2.5-2.5-4.3-2.9l0,0c-0.7-0.5-1.3-1-2-1.5c-1.2-2-3.2-1-4.9-1.3c-0.8-1.2-1.9-1.8-3.4-2.1c-7.6-1.6-15.3-1.8-23-1.8
	c-1.5,0-1,2.6-3.2,1.6c-3.4-1.6-7.1-0.5-10.7,0c-12.7,1.7-25.1,5.2-37.9,5.3c-1,0-2.1-0.1-3.1-0.1c-0.5,0.1-1.1,0.1-1.6,0.2
	c-0.8,0-1.5-0.1-2.3-0.1c-1.3-0.6-2.4-0.4-3.6,0.4c-0.2-1.2-1-1.5-2.1-1.1c-6.7,1.4-11.4,5.3-14.4,11.6c2.4-0.2,4.6-0.4,6.7-0.6
	c0.7,0.1,1.3,0.1,2,0.2c1.9,0.6,3.8,1.2,5.7,1.8c0.6,0.4,1.2,0.7,1.9,1.1c3.4,1.9,6.4,4.6,10.6,4.7c0.8,1.2,2,0.6,3,0.9
	c3.1,0.3,6.1-0.3,8.8-1.7c0.6-0.1,1.2-0.2,1.8-0.3c1.3,0.1,2.6,0.4,3.8,0.2c14.3-2.7,28.5-5.7,42.9-7.6l-0.1,0
	c9.6,0.5,19.3-1.9,28.7,1.5c0.7,0.8,1.7,0.5,2.5,0.6c1.2,0.9,2.8,2.5,4,1.3c1.5-1.4-0.1-3.2-1-4.6c-0.7-1-1.7-1.8-2.5-2.7l0,0
	C184.7,84,184.3,83.6,184.1,83.4L184.1,83.4z M175.4,180.9c0.1,0.1,0.2,0.1,0.4,0.2C175.6,181.1,175.5,181,175.4,180.9
	c0-2.2,0-4.4,0-6.7c3.7,0.4,5.7,3.2,7.9,5.7c1.5,1.7,3.1,3.1,5.1,4.1c1.4,0.7,2.7,0.3,3.5-0.6c1.3-1.5-0.7-1.7-1.4-2.3
	c-2.1-2.1-3.6-4.4-1.9-8c3.9,5,8,4.5,12.2,1c2.2-1.9,3.3,0,4.8,1.1c0.9,0.6,0.7,3.5,2.9,1.8c1.5-1.1,1.7-2.8,0.8-4.3
	c-2.2-3.5-3.8-7.4-8.1-9c-0.2-0.1-0.4-0.3-0.6-0.4c0.1,0.2,0.2,0.4,0.4,0.6c0,2.2,1,4.8-2.6,7.1c1.5-4,0.5-6.5-1.7-8.2
	c-1.4-1.1-2.9-4.1-5.4-1.2c-4.5,5.3-10.1,9-15.9,12.6C170.7,175.9,170.7,175.9,175.4,180.9z M89.9,75.1c2.4,0.9,4.8,0.5,7.3,0.4
	c2.6-0.4,5.3-0.5,7.8-1.1c17.8-4.3,35.8-6.9,54.2-5.5c1.1,0.1,2.5,0.8,3.4-0.7c-17.2-10.8-35.6-14.6-55.5-9.7c-3.8,1-8,1.7-10.6,5.4
	l0,0.2c-6.3,1.3-9.1,6.6-12.9,11.2C86,76.1,88,76.2,89.9,75.1z M217.4,149.3c0.4-0.9,0.8-1.8,1.3-2.8c1.6-3.5,0.9-6.4-2.1-8.7
	c-1.5-1.6-3.1-3.2-4.6-4.9c-1.6-3.6-1.4-6.8,1.1-10.2c5.5-7.3,4.3-12.6-4-16.4c-6.1-2.7-11.4-5.9-13.6-12.6c0.1-2.1-0.4-4-2.5-5.9
	c-0.4,3.2-0.7,5.9-3.2,7.6c-0.7,0.5-0.8,1.3-0.4,2.1c1.4,3.4,1.8,7.4,5.2,9.6c2,1.3,3.9,2.7,5.9,4c5,3.3,6.3,6.9,3,11.6
	c-4.2,6-5.9,11.4,0.4,16.9c0.1,0-0.1,0.3-0.1,0.4c-1.5-0.4-2.8-0.4-2.6,1.7c0.2,1.6,1.5,2.9,2.6,2.8c2.7-0.3,0.7-2.3,0.9-3.6
	c2.7,0.2,2.5,1.8,1.8,3.6c-0.7,1.9-2.2,3.1-3.6,4.4c-2.6,2.6-4.4,5.3-2.7,9.2c1.5,3.5,4.7,5.6,9.1,5.7c-3-5-3-5,1.7-9.8
	c1.8-1.4,4.5-1.5,5.6-3.9C216.8,150,217.1,149.7,217.4,149.3z M103.7,99.8c-1.4-0.1-2.8-0.6-3.8,0.8c-0.9,0.3-1.9,0.7-2.8,1
	c-1.2,0.3-2.5,0.4-3.6,0.9c-6.1,2.5-7.6,5.6-5.9,11.9c0.3,1.1,0.6,2.1,1,3.2c1.4,3.9,0,6.8-3.1,9.1c-1.8,1.3-3.8,2.3-5.6,3.6
	c-4.3,3-4.4,6.6-0.3,10.1c6.2,5.2,6,7.3-1,10.8c-4.6,2.4-5.9,6.8-3.1,11.1c1.2,1.9,2.8,3.5,4.8,4.6c2.7,1.5,4.6,3.7,6.2,6.8
	c0.7-4.4-1.9-7.4-2.9-10.8c-1.1-4,0.1-6.4,3.8-7.9c8.9-3.9,9.5-5.4,6-14.4c-2.7-6.9-2.3-9.4,4-13c4.7-2.7,5.7-6.6,4.5-10.9
	c-1.3-4.9-0.1-8.7,3.1-12.2c5-2.9,12.2-1.3,16.9-8C114.8,97.7,109.2,98.8,103.7,99.8z M74.1,133.1c1.3-1.6,2.5-3.3,3.8-4.9
	c8.6-2.9,10.1-5.8,7.4-13.8c-1.9-5.7-0.5-9.3,4.7-12.2c1.2-0.7,2.5-1.3,4.3-2.3c-4.9-0.6-8.3-3-11.8-5c-8.2-4.7-16.4-3.7-23.2,2.8
	c-10.3,9.6-9.8,30.8,8.9,38.9C73.9,139,74,139,74.1,133.1z M115.2,182.8c-6.2-2-7.8-1.5-12.2,4.4c-7.1,9.5-9.1,20.7-9.8,32.1
	c-0.5,8.3,0,16.5,4.1,24c1.3,2.3,3.2,4.3,5.9,4.3c2.8,0,4.4-2.3,5.2-4.8c0.7-2.1,1.5-4.1,1.9-6.3c1.1-6.7,1.6-13.5,3-20.2
	c1.3-6.1,3.2-12.1,7.3-17.6c0.8,2.5-0.4,4-0.8,5.7c-2.5,10.7-2.2,21.7-4.9,32.3c-1,3.8,0.2,4.5,3.4,5.5c6.9,2.2,13.9,3,21,3
	c8.9,0,17.7-0.7,25.7-5.1c4.1-2.3,7.1-5.1,7.7-10.4c0.9-7.7,0.6-15.3-0.8-22.8c-1.3-6.8-2.9-13.8-7.3-19.6c-2-6.7-3.6-7.8-10-6.7
	c-5,0.8-9.9,2.4-14.8,2.7C131.8,184,123.4,184.4,115.2,182.8z M166.1,138.4c-2.4-6-6-11-3-17.4c-2.3,0.2-2.4,2.9-4.2,2.4
	c0.8-13.8,6.7-24.5,19.5-30.5c-1.3-2-2.7-1.8-4.1-1.9c-13.9-0.9-27.5,1.3-41.1,3.1c-6.1,0.8-11.4,2.8-13.9,9.8
	c8.7-1.9,15.6-0.1,19.9,9.4c-10.9-2.3-21.1,0.6-31.3-0.3c-1.3-0.1-4.4-1.6-4,2c0.3,2.5,1.5,4.7,4.5,3.6c3.2-1.2,6.6-0.7,9.8-1.4
	c5.4-1.1,11-2.2,16.9-1.2c-1.1,2.5-3.7,3.4-3.8,6.5c-0.3,10.5-5,14.8-15.5,14.4c-7.1-0.3-10.9-4.6-12.6-11.4c-1,2.1-2.7,2.8-4.1,3.8
	c-5.7,3.7-5.9,4.4-3.7,10.7c1,2.9,2.8,5.7,2.1,9c-0.9,4.7-4.5,6.5-8.5,8c-1.5,0.6-3.4,0.6-3.7,2.9c-0.6,4.2,3,10.8,7.1,12.5
	c25.7,10.4,51.5,9.2,77-0.2c12.4-4.5,21.9-13.1,26.5-25.9c1.5-4.2,2.7-8.4,1.4-13.2c-1.1-4.1,1.4-8.9-1.8-12.9
	c-1.5,1.1-1.3,2.6-1.2,4c0.2,3.2-0.3,5.9-3.6,7.4c-2.9,1.4-5.1,3.5-6.8,6.4c-0.7,1.3-3.1,2.8-4.9,1.9c-4.2-1.9-6.8-1-8.4,3.2
	c-0.5,1.4,0,3.2-2.1,4.1c0.1-4.4,1.5-8.6,0.7-13.2C168.3,135.6,167.5,136.7,166.1,138.4z M68.3,176.8c4.8,3.3,5.7,6.6,3.7,12.4
	c-1.9,5.7-0.7,7.9,5.3,9c3.4,0.6,5.2,2.5,6.3,5.7c0.5,1.3-1.9,3.4,0.7,3.8c2.3,0.3,4.8-1,5.3-3.2c0.6-2.5,2.3-4,3.2-5.9
	c3.2-6.6,6.8-12.8,12.9-18.3c-5.3-0.3-9.1-2.8-13.4-3.6c-0.8,3.6,2.9,6.1,1.1,9.8c-2.6-3.3-3.8-6.9-4.6-10.8
	c-2.7,1.4-3.8,2.8-1.3,5.3c1.3,1.3,2.4,3,3.1,4.8c1.1,2.8,0.7,5.2-3.5,6.4c2.4-4.4,0.4-7.3-2-10.3c-1.8-2.2-4.1-4.6-4.2-7.4
	c0-3.9-2.4-5.6-5-7.4c-0.6-0.4-1.1-1.4-2-0.9c-1,0.5-1,1.6-0.8,2.5c0.4,2,1.8,3.6,1.6,6.4c-2.3-2.4-3.6-4.5-3.7-7.3
	c0-7,2-14,0.1-21.1c-0.1-0.5,0.1-1.3,0.4-1.8c1.7-2.8-0.2-3.6-2.3-3.9c-3.2-0.5-5.9-2.1-8.6-3.9c-1.1-0.8-2.1-2.4-4-0.8
	c-1.5,1.3-2.9,2.2-2.8,4.5c0.1,2.7,1.5,4.9,2.9,6.9c1.5,2.2,2.3,4.6,1.9,7.2c-0.4,2.4-0.5,4.4-4.5,4.2c-8.6-0.4-11.3,4.5-8.3,12.7
	c2.3,6.3,5.2,12.7,1.6,19.7c-1.1,2.2,0.2,4.2,2.4,5.6c2.6,1.7,2.7-1,3.8-2c0.9-0.9,1.9-1.8,2.9-2.4c4-2.3,4.4-4.2,0.9-7.6
	c-3.7-3.7-5.3-8.2-6.3-13.1c-0.5-2.6,0.3-4.9,3.4-6.7c-1,7.1-0.1,13.3,4.4,18.2c3,3.2,3.1,6.2,1.5,10c-1.8,4.2-1,5.5,3.5,7
	c0.9-1.6-1.4-2.9-0.3-4.6c1.5,0.1,2.3,2.1,4.3,1.6C67.2,190.5,73.4,183.9,68.3,176.8z M163.4,178.8c8.8,14.9,12.8,30.8,11.1,47.9
	c-0.4,3.9,2.4,6.3,5.4,6.6c3.8,0.4,4.7-3.4,5-6.3c1.7-17.6-4.9-32.8-14.6-46.9C168.4,177.4,166.4,176.6,163.4,178.8z M124.3,120.5
	c-2.7,0.4-5.3,0.9-8,1.1c-2.8,0.2-5.7,0.3-8.6,0.2c-2.5-0.1-2.4,1.4-2.1,3.1c0.8,5.3,6.4,9.9,12.4,10c5.6,0.1,9.3-2.9,10.6-8.8
	C129.9,120.6,129.9,120.6,124.3,120.5z M186.7,118.8c-0.4-1.4-0.8-3.6-1.5-5.7c-0.5-1.6-1.3-3.7-3.3-3.5c-2.3,0.3-4.9,0.3-6.1,3.4
	c-1.7,4.1-1.3,8.2,0.2,12c1,2.4,3.2,4.9,6.3,2.6C185,125.7,186.7,123,186.7,118.8z M133.3,110.2c-1-3.5-2.8-3.9-5-3.9
	c-4.4,0-8.8,0.2-13.2-0.8c-3-0.7-5.9,0.6-8.6,1.9c-0.7,0.4-1.4,0.9-1.3,1.8c0.2,1.1,1.2,1,1.9,0.9c5-1.3,10,0.8,15,0.1
	C125.5,109.6,129,108.4,133.3,110.2z M76.2,140.6c-1.4,3.4-4,6.6-1,9.1c1.3,1.1,5-0.7,5.8-2.6C82.4,143.5,78.2,143,76.2,140.6z
	 M185,98.1c-5.1-2.7-6.9,3.3-10.8,3.9C178.5,102.8,181.3,99.1,185,98.1z M201.6,123.2c1.5-2.6,2.5-4.7,0.8-7.4
	C200.3,118.2,199.3,120.2,201.6,123.2z"/>
<path class="st1" d="M63.4,32.5c5.1-0.8,8.5,0.5,12.5,2.2c2.3,1,5.2,2.2,5.5,4.8c0.2,2.2-2.5,3.4-4.2,4.7c-1.1,0.9-2.4,1.4-4.1,2.5
	c4.3,1.5,7.7-0.4,11.1-1.5c2.1,9.3-2.2,13.6-8.1,17c-5.9,3.4-14.2,2.8-18.9-0.9c-4.9-4-7-11.6-5.1-17.7c1.2-3.8,4.6-5.9,6.7-9
	C59.9,33,61.7,32.7,63.4,32.5z"/>
<path class="st2" d="M52.9,146.2c4.4,5.2,3.6,8.6-2.7,11.1c-9.6,3.8-10.9,6.6-6.3,15.8c3.2,6.5,2.3,11.7-2.4,14.4
	c-3.6,2-5.6-0.8-7.8-2.8c-0.3-0.3-1-1.1,0.2-1.8c7.6-4.5,7.6-4.8,0.7-10.1c-0.2-0.2-0.4-0.5-0.6-0.7c-0.1-0.8-0.4-1.4-1.3-1.5
	c0,0,0.1,0.1,0.1,0.1c-0.7-3-1.2-6.1-0.9-9.2c2.3-2.5,4.7-4.3,8.5-4.6c4.7-0.4,6.4-4.7,4.1-8.9c-4.4-8.1-3.9-10.7,3.4-17.1
	c1.5-1.3,2.6-3.1,3.9-4.7c0.9,1.4,1.6,3,2.8,4c2.8,2.3,2.3,3.8-0.5,5.6c-3,1.9-1.7,5.2-1.9,7.9c-0.6-0.7-1.2-1.5-1.8-2.2
	c-0.6-0.7-1.4-1.7-2.4-0.9c-0.8,0.6-0.8,2-0.2,2.6c3.2,3.3,2.5,7,0.5,11.4C52.4,152.5,53,149.5,52.9,146.2z"/>
<path class="st3" d="M31.8,161.5c-0.2,3.1,0.3,6.2,0.9,9.2c-3.1-3.4-3.5-7.1-1-11C31.7,160.3,31.7,160.9,31.8,161.5z"/>
<path class="st3" d="M32.6,170.5c0.9,0.1,1.2,0.7,1.3,1.5C33.1,171.9,32.7,171.4,32.6,170.5z"/>
<path class="st4" d="M166.1,138.4c1.3-1.7,2.2-2.8,3.3-4.3c0.7,4.6-0.6,8.8-0.7,13.2c2.2-0.9,1.6-2.8,2.1-4.1
	c1.6-4.3,4.2-5.1,8.4-3.2c1.9,0.8,4.2-0.6,4.9-1.9c1.6-3,3.8-5,6.8-6.4c3.2-1.5,3.8-4.2,3.6-7.4c-0.1-1.4-0.3-2.9,1.2-4
	c3.1,4,0.7,8.8,1.8,12.9c1.3,4.8,0.1,9-1.4,13.2c-4.6,12.9-14.1,21.4-26.5,25.9c-25.5,9.4-51.3,10.5-77,0.2
	c-4.1-1.6-7.7-8.3-7.1-12.5c0.3-2.4,2.1-2.4,3.7-2.9c3.9-1.5,7.5-3.3,8.5-8c0.7-3.3-1.1-6.1-2.1-9c-2.2-6.3-2.1-7,3.7-10.7
	c1.4-0.9,3.1-1.6,4.1-3.8c1.7,6.9,5.5,11.2,12.6,11.4c10.4,0.4,15.2-3.8,15.5-14.4c0.1-3.1,2.7-4,3.8-6.5c-5.8-1-11.4,0.1-16.9,1.2
	c-3.3,0.6-6.6,0.2-9.8,1.4c-3.1,1.2-4.2-1.1-4.5-3.6c-0.4-3.6,2.7-2.1,4-2c10.3,0.9,20.4-2.1,31.3,0.3c-4.2-9.5-11.2-11.3-19.9-9.4
	c2.5-7,7.9-9,13.9-9.8c13.7-1.8,27.3-4,41.1-3.1c1.4,0.1,2.8-0.1,4.1,1.9c-12.8,6-18.7,16.7-19.5,30.5c1.8,0.5,1.9-2.1,4.2-2.4
	C160.1,127.4,163.7,132.4,166.1,138.4z M141.9,154.9c2.7,1.6,4.7,1.6,6.3,0.9c4.5-2,8.9-3.7,14-1.7c1.4,0.5,4-0.4,4.3-1.6
	c0.4-1.8-1.8-2.5-3.5-3.1C154.9,146.3,149.4,152.3,141.9,154.9z"/>
<path class="st5" d="M164.9,187.5c4.4,5.8,6,12.7,7.3,19.6c1.4,7.5,1.7,15.1,0.8,22.8c-0.7,5.3-3.7,8.1-7.7,10.4
	c-8,4.5-16.9,5.1-25.7,5.1c-7.1,0-14.1-0.8-21-3c-3.2-1-4.4-1.8-3.4-5.5c2.7-10.6,2.4-21.7,4.9-32.3c0.4-1.6,1.5-3.2,0.8-5.7
	c-4.1,5.5-6,11.5-7.3,17.6c-1.4,6.6-1.9,13.4-3,20.2c-0.3,2.1-1.2,4.2-1.9,6.3c-0.9,2.5-2.5,4.8-5.2,4.8c-2.7,0-4.6-2-5.9-4.3
	c-4.1-7.5-4.6-15.7-4.1-24c0.7-11.5,2.7-22.6,9.8-32.1c4.4-5.9,6-6.5,12.2-4.4c-0.5,1.2,0.1,2.8,1.1,2.5c4.5-1.3,5.8,3.1,8.7,4.6
	c1,0.5,1.6,2.1,3.2,1c1.6-1.1-0.5-2.2,0.4-3.7c2.5,1.7,4.9,3.5,7.3,5.1c0.9,0.6,2,2,2.9,0.9c3.1-3.7,4.9-0.3,6,1.5
	c2.9,4.5,5,3.8,7-0.3c1.8,0.6,2.1,3.6,4.5,2c1.7-1.2,3.4-2.4,1.9-4.9l0,0C162.3,193.2,164,191.1,164.9,187.5z"/>
<path class="st2" d="M68.3,176.8c5.1,7.1-1.1,13.7-0.1,20.6c-2,0.5-2.8-1.5-4.3-1.6c-1.1,1.7,1.2,3.1,0.2,4.6
	c-4.5-1.5-5.3-2.9-3.5-7c1.6-3.7,1.5-6.7-1.5-10c-4.5-4.9-5.5-11.1-4.4-18.2c-3.1,1.9-3.9,4.1-3.4,6.7c1,4.9,2.6,9.4,6.3,13.1
	c3.4,3.4,3,5.3-0.9,7.6c-1.1,0.6-2,1.5-2.9,2.4c-1.1,1-1.2,3.6-3.8,2c-2.2-1.4-3.5-3.3-2.4-5.6c3.6-7,0.7-13.4-1.6-19.7
	c-3-8.2-0.3-13.1,8.3-12.7c4,0.2,4.1-1.8,4.5-4.2c0.4-2.6-0.4-5-1.9-7.2c-1.4-2.1-2.8-4.2-2.9-6.9c-0.1-2.3,1.3-3.2,2.8-4.5
	c2-1.6,2.9,0,4,0.8c2.6,1.8,5.3,3.4,8.6,3.9c2.2,0.3,4.1,1.1,2.3,3.9c-0.3,0.5-0.6,1.3-0.4,1.8c1.9,7-0.1,14.1-0.1,21.1
	c0,2.8,1.4,5,3.7,7.3c0.3-2.7-1.2-4.4-1.6-6.4c-0.2-1-0.2-2,0.8-2.5c0.9-0.5,1.3,0.5,2,0.9c2.6,1.8,5,3.4,5,7.4
	c0,2.8,2.4,5.2,4.2,7.4c2.4,3,4.4,5.9,2,10.3c4.2-1.1,4.6-3.6,3.5-6.4c-0.7-1.7-1.8-3.4-3.1-4.8c-2.5-2.5-1.4-3.9,1.3-5.3
	c0.8,3.8,2,7.5,4.6,10.8c1.9-3.7-1.9-6.2-1.1-9.8c4.3,0.8,8.1,3.2,13.4,3.6c-6.1,5.5-9.7,11.7-12.9,18.3c-0.9,1.9-2.6,3.4-3.2,5.9
	c-0.5,2.2-3,3.5-5.3,3.2c-2.6-0.4-0.3-2.5-0.7-3.8c-1.1-3.1-2.9-5.1-6.3-5.7c-5.9-1-7.2-3.2-5.3-9C74,183.4,73.1,180.1,68.3,176.8z
	 M66,189.9c1.7-3.6,2-7-0.5-10.2c-3-3.8-5.9-7.5-4.1-12.8c0.5-1.4-0.7-2.5-2-2.7c-2.1-0.3-1.5,1.6-1.6,2.6
	c-0.4,4.1,0.6,7.9,3.1,11.1C63.7,181.5,66.5,184.9,66,189.9z"/>
<path class="st6" d="M93.3,78.8c12.9-0.1,25.3-3.6,37.9-5.3c3.6-0.5,7.3-1.6,10.7,0c2.2,1,1.8-1.6,3.2-1.6c7.7,0,15.4,0.2,23,1.8
	c1.5,0.3,2.5,1,3.4,2.1c1.2,3,4.3,4,6.5,5.9c1.3,1.3,2.7,2.6,3.9,4c1,1.2,2.1,2.5,0.1,3.9c-9.4-3.4-19.1-1-28.7-1.5
	c0.6-0.6,1.1-1.3,1.3-1.5c0.3,0.6-3.9-1.6-1.3,1.5C139,90,124.8,93,110.5,95.7c-1.2,0.2-2.5-0.1-3.8-0.2c-2.5-3-3.5-6.6-3.5-10.6
	c-1.8,4.1-2.3,7.8,1.7,10.9c-2.8,1.5-5.7,2-8.8,1.7c-1.5-2.4-1.8-5.2-2.4-8.5c-1.7,2.9-1.7,5.2-0.6,7.6c-4.2,0-7.2-2.7-10.6-4.7
	c0.5-5.1,3.8-8.9,6.1-13.2c0.5-0.1,1.1-0.1,1.6-0.2c0,2.9-2.9,5.1-2.5,9.6C90,84.3,91.7,81.5,93.3,78.8z M166.2,75.3
	c-0.4-0.1-0.7-0.2-1.1-0.3c0.2,0.3,0.3,0.6,0.5,0.9c0.6,0.5,1.1,0.9,1.7,1.4c0.3,0.2,0.9,0.6,1,0.5c0.6-0.5,0.1-0.9-0.3-1.3
	C167.4,76.1,166.8,75.7,166.2,75.3z M154.3,83.4c1.2-0.3,2.5,1.6,3.6-0.1c0.3-0.5,0.1-1.2,0.1-1.8c-1,0.4-1.8,1.4-3.1,1.3
	C154.8,82.7,154.5,83.2,154.3,83.4c-0.8,0-1.6,0-1.9,1c-2.7,0-5.4,0-8,0c2.7,0.4,5.5,2.2,8,0C153.2,84.4,154.3,85,154.3,83.4z
	 M169,78.9c1.4,2.5,1.8,4.3,4.3,4.4C173,81,171.8,79.9,169,78.9z"/>
<path class="st4" d="M74.1,133.1c-0.1,5.9-0.3,5.9-6,3.4c-18.7-8.1-19.2-29.3-8.9-38.9c6.9-6.4,15.1-7.4,23.2-2.8
	c3.5,2,7,4.4,11.8,5c-1.8,1-3.1,1.6-4.3,2.3c-5.3,2.9-6.7,6.5-4.7,12.2c2.7,8,1.1,10.9-7.4,13.8c0.1-0.3,0.3-0.6,0.4-0.8
	c-3.5-1.3-6.7-4.6-10.5-3.5c-3.6,1-5.9-0.5-8.8-1.8c1.5,2.5,0.4,7.8,6.3,5.7c0.8-0.3,0.8,0.3,0.9,0.6
	C66.9,133.1,70.3,133.4,74.1,133.1z"/>
<path class="st7" d="M104.6,104.5c-3.2,3.5-4.5,7.3-3.1,12.2c1.2,4.3,0.2,8.2-4.5,10.9c-6.3,3.7-6.7,6.1-4,13c3.6,9.1,3,10.6-6,14.4
	c-3.6,1.6-4.9,3.9-3.8,7.9c1,3.4,3.5,6.5,2.9,10.8c-1.6-3.1-3.5-5.3-6.2-6.8c-2-1.1-3.6-2.7-4.8-4.6c-2.8-4.3-1.5-8.8,3.1-11.1
	c7-3.6,7.2-5.6,1-10.8c-4.1-3.5-4-7.1,0.3-10.1c1.8-1.3,3.8-2.3,5.6-3.6c3.1-2.3,4.6-5.2,3.1-9.1c-0.4-1-0.7-2.1-1-3.2
	c-1.7-6.3-0.2-9.4,5.9-11.9c1.1-0.5,2.4-0.6,3.6-0.9c-2.2,5.2-3.3,10.3-0.4,15.6c0.5-0.1,0.7-0.1,0.8-0.2c0.9-2.5,0.2-5,0.5-7.5
	C98.4,105.1,100.7,103.4,104.6,104.5z"/>
<path class="st6" d="M96.5,64c2.6-3.7,6.8-4.4,10.6-5.4c19.8-5,38.2-1.1,55.5,9.7c-0.9,1.4-2.3,0.7-3.4,0.7
	c-18.4-1.4-36.4,1.1-54.2,5.5c-2.5,0.6-5.2,0.8-7.8,1.1c-0.3-1.7,0.8-2.3,2.1-2.5c1.4-0.3,1.9-1.2,1.5-2.4
	C99.9,68.1,99.8,65,96.5,64z"/>
<path class="st7" d="M203.7,140.2c0-0.2,0.2-0.4,0.1-0.4c-6.3-5.5-4.6-10.8-0.4-16.9c3.3-4.8,2-8.3-3-11.6c-2-1.3-3.9-2.6-5.9-4
	c1.1-0.7,0.7-1.6,0.3-2.5c-1.7-3.7-1-7.3,0.6-10.9c2.3,6.7,7.5,9.9,13.6,12.6c8.4,3.7,9.5,9,4,16.4c-2.5,3.3-2.7,6.6-1.1,10.2
	c-2.3,0.5-2-2.6-3.8-2.8c-1,4,0.5,6.6,3.8,8.9c4.6,3,4.8,5.9,1.6,10.4c-0.9,1.3-2.2,2.2-3.5,3.2c-1.4,1.1-0.1,1.4,0.8,1.6
	c-4.7,4.8-4.7,4.8-1.7,9.8c-4.3-0.1-7.5-2.2-9.1-5.7c-1.7-3.9,0.1-6.7,2.7-9.2c1.3-1.3,2.9-2.5,3.6-4.4c0.7-1.8,0.8-3.5-1.8-3.6
	l0.3-0.2c0-0.7-0.3-1-1-1L203.7,140.2z"/>
<path class="st8" d="M163.4,178.8c3-2.2,5-1.4,6.9,1.3c9.8,14.1,16.3,29.2,14.6,46.9c-0.3,2.9-1.2,6.8-5,6.3c-3-0.3-5.8-2.7-5.4-6.6
	C176.1,209.5,172.1,193.7,163.4,178.8z"/>
<path class="st3" d="M158.2,191.5c1.5,2.5-0.2,3.7-1.9,4.9c-2.4,1.7-2.7-1.4-4.5-2c-2,4.1-4.2,4.8-7,0.3c-1.1-1.7-2.9-5.1-6-1.5
	c-0.9,1-2-0.3-2.9-0.9c-2.5-1.6-4.8-3.4-7.3-5.1c-0.9,1.5,1.2,2.6-0.4,3.7c-1.6,1.1-2.2-0.4-3.2-1c-2.9-1.5-4.2-5.8-8.7-4.6
	c-1,0.3-1.6-1.3-1.1-2.5c8.3,1.5,16.6,1.1,24.9,0.7c4.9-0.3,9.8-1.8,14.8-2.7c6.4-1.1,8.1-0.1,10,6.7
	C164,191.1,162.3,193.2,158.2,191.5c0.1-1-0.5-1-1.2-0.9c-0.1,0-0.4,0.2-0.4,0.3C156.9,191.6,157.6,191.5,158.2,191.5z"/>
<path class="st2" d="M201.3,163.7c4.3,1.6,5.9,5.6,8.1,9c0.9,1.5,0.7,3.2-0.8,4.3c-2.2,1.7-2-1.2-2.9-1.8c-1.6-1-2.7-2.9-4.8-1.1
	c-4.2,3.6-8.4,4-12.2-1c-1.7,3.7-0.2,5.9,1.9,8c0.6,0.6,2.7,0.7,1.4,2.3c-0.8,0.9-2,1.3-3.5,0.6c-2-1-3.7-2.4-5.1-4.1
	c-2.1-2.5-4.2-5.3-7.9-5.7c0,0,0,0,0,0c5.8-3.6,11.5-7.3,15.9-12.6c2.5-2.9,4,0.1,5.4,1.2c2.2,1.7,3.2,4.2,1.7,8.2
	c3.6-2.3,2.6-4.9,2.6-7.1L201.3,163.7z"/>
<path class="st9" d="M124.3,120.5c5.6,0.1,5.6,0.1,4.3,5.6c-1.4,5.9-5,8.9-10.6,8.8c-5.9-0.1-11.6-4.7-12.4-10
	c-0.2-1.7-0.4-3.2,2.1-3.1c2.9,0.1,5.7,0,8.6-0.2C119,121.3,121.6,120.8,124.3,120.5z"/>
<path class="st6" d="M186.7,118.8c0,4.2-1.7,6.9-4.3,8.8c-3.2,2.3-5.3-0.1-6.3-2.6c-1.6-3.8-1.9-7.8-0.2-12c1.2-3.1,3.8-3.1,6.1-3.4
	c2-0.3,2.8,1.8,3.3,3.5C185.9,115.2,186.3,117.4,186.7,118.8z"/>
<path class="st10" d="M104.6,104.5c-4-1-6.2,0.7-6.7,5.1c-0.3,2.5,0.4,5.1-0.5,7.5c0,0.1-0.3,0.1-0.8,0.2
	c-2.9-5.3-1.9-10.4,0.4-15.6c1-0.3,1.9-0.7,2.9-1c1.3-0.1,2.7,0.3,3.8-0.8c5.5-1,11.1-2.1,17.9-3.3
	C116.8,103.2,109.7,101.5,104.6,104.5z"/>
<path class="st11" d="M74.1,133.1c-3.8,0.3-7.2,0-7.8-4.8c0-0.3-0.1-0.9-0.9-0.6c-6,2.1-4.8-3.2-6.3-5.7c2.9,1.3,5.1,2.8,8.8,1.8
	c3.8-1,7,2.2,10.5,3.5c-0.1,0.3-0.3,0.6-0.4,0.8C76.6,129.8,75.4,131.5,74.1,133.1z"/>
<path class="st12" d="M133.3,110.2c-4.2-1.9-7.7-0.6-11.3-0.1c-5,0.7-10-1.3-15-0.1c-0.7,0.2-1.7,0.2-1.9-0.9
	c-0.2-0.9,0.6-1.4,1.3-1.8c2.7-1.4,5.6-2.7,8.6-1.9c4.4,1.1,8.8,0.8,13.2,0.8C130.4,106.3,132.3,106.8,133.3,110.2z"/>
<path class="st10" d="M210.9,154.3c-0.9-0.2-2.2-0.4-0.8-1.6c1.2-1,2.5-1.8,3.5-3.2c3.2-4.6,2.9-7.4-1.6-10.4
	c-3.4-2.2-4.9-4.8-3.8-8.9c1.8,0.3,1.5,3.3,3.8,2.8c1.5,1.6,3.1,3.2,4.6,4.9c0.9,2.9,0.3,6.1,2.1,8.7c-0.4,0.9-0.8,1.8-1.3,2.8
	c-0.3,0.3-0.6,0.7-0.9,1C215.4,152.8,212.7,152.8,210.9,154.3z"/>
<path class="st2" d="M96.5,64c3.3,1,3.4,4.1,4.3,6.6c0.4,1.2-0.1,2.1-1.5,2.4c-1.3,0.3-2.4,0.8-2.1,2.5c-2.4,0.1-4.9,0.5-7.3-0.4
	c1.3-1.5,0.4-4.2,2.7-5.1c2.7-1,3.2-3.5,3.9-5.9L96.5,64z"/>
<path class="st10" d="M195.3,93.9c-1.6,3.5-2.3,7.1-0.6,10.9c0.4,0.9,0.8,1.8-0.3,2.5c-3.5-2.3-3.9-6.2-5.2-9.6
	c-0.3-0.8-0.3-1.6,0.4-2.1c2.4-1.7,2.8-4.3,3.2-7.6C195,89.9,195.4,91.8,195.3,93.9z"/>
<path class="st6" d="M72.9,89c-2.1,0.2-4.3,0.4-6.7,0.6c3-6.4,7.7-10.2,14.4-11.6c-0.9,2.8-4.2,4.2-4.7,7.4l0,0
	c-1.1,0.3-1.6,0.8-1,2l0,0C73.3,86.7,73.4,88.1,72.9,89z"/>
<path class="st6" d="M96.5,64.2c-0.7,2.4-1.2,4.9-3.9,5.9c-2.4,0.9-1.4,3.6-2.7,5.1c-1.9,1-3.8,1-6.3,0.2
	C87.4,70.8,90.2,65.5,96.5,64.2z"/>
<path class="st6" d="M80.6,91c-1.9-0.6-3.8-1.2-5.7-1.8c0-0.7,0.1-1.3,0.1-2c0,0,0,0,0,0c1-0.3,1.6-0.8,1-2c0,0,0,0,0,0
	c3.4-0.8,5-3.7,6.8-6.2c1.1-0.8,2.3-1,3.6-0.4C83.8,82.5,82,86.6,80.6,91z"/>
<path class="st4" d="M76.2,140.6c2,2.4,6.2,2.9,4.8,6.5c-0.7,1.9-4.4,3.7-5.8,2.6C72.2,147.2,74.8,144,76.2,140.6z"/>
<path class="st13" d="M52.9,146.2c0,3.3-0.5,6.3-4.9,8.3c2-4.4,2.7-8.1-0.5-11.4c-0.6-0.6-0.6-2,0.2-2.6c1-0.7,1.7,0.3,2.4,0.9
	c0.6,0.7,1.2,1.4,1.8,2.2C53,144.2,53,145.1,52.9,146.2z"/>
<path class="st2" d="M80.6,91c1.3-4.3,3.1-8.4,5.6-12.2c0.8,0,1.5,0.1,2.3,0.1c-2.3,4.3-5.6,8.1-6.1,13.2
	C81.9,91.7,81.2,91.3,80.6,91z"/>
<path class="st2" d="M182,89.6c2-1.3,0.9-2.7-0.1-3.9c-1.2-1.4-2.6-2.7-3.9-4c0.3-0.3,0.7-0.7,1-1c1.1,0.6,2.1,1.7,3.6,0.7
	c0.3,0,0.5,0.1,0.5,0.5c-0.2,0.9,0,1.5,1,1.4c0,0,0-0.1,0-0.1c-0.2,0.9,0.1,1.2,1,1c0,0,0,0,0,0c-0.3,2,0.8,4-0.5,5.9
	C183.6,90.2,182.7,90.4,182,89.6z"/>
<path class="st2" d="M105,95.8c-4-3-3.6-6.8-1.7-10.9c0,3.9,0.9,7.6,3.5,10.6C106.2,95.7,105.6,95.7,105,95.8z"/>
<path class="st12" d="M185,98.1c-3.7,1-6.5,4.7-10.8,3.9C178.1,101.4,179.9,95.5,185,98.1z"/>
<path class="st2" d="M93.3,78.8c-1.6,2.8-3.3,5.6-5.5,9.4c-0.5-4.5,2.5-6.6,2.5-9.6C91.2,78.7,92.3,78.7,93.3,78.8z"/>
<path class="st6" d="M184.5,90.2c1.3-1.9,0.1-4,0.5-5.9c0.8,0.9,1.8,1.7,2.5,2.7c0.9,1.4,2.5,3.2,1,4.6
	C187.3,92.7,185.7,91.1,184.5,90.2z"/>
<path class="st2" d="M82.7,79.1c-1.8,2.5-3.4,5.4-6.8,6.2c0.5-3.1,3.7-4.5,4.7-7.4C81.7,77.6,82.4,77.9,82.7,79.1z"/>
<path class="st2" d="M178,81.7c-2.2-1.9-5.3-2.9-6.5-5.9c1.7,0.2,3.7-0.8,4.9,1.3c0.1,1.3,0.6,1.9,2,1.5c0,0,0,0,0,0
	c-0.7,1,0.3,1.5,0.7,2.2C178.7,81.1,178.3,81.4,178,81.7z"/>
<path class="st2" d="M93.1,96.7c-1-2.4-1.1-4.7,0.6-7.6c0.6,3.2,0.9,6,2.4,8.5C95.1,97.3,93.9,97.9,93.1,96.7z"/>
<path class="st4" d="M201.6,123.2c-2.3-2.9-1.3-5,0.8-7.4C204.1,118.5,203.1,120.6,201.6,123.2z"/>
<path class="st4" d="M204.6,141.1c-0.2,1.3,1.8,3.3-0.9,3.6c-1.2,0.1-2.5-1.2-2.6-2.8c-0.2-2.1,1-2.2,2.6-1.7c0,0,0.2-0.3,0.2-0.3
	c-0.3,1,0,1.3,1,1L204.6,141.1z"/>
<path class="st2" d="M175.4,180.9c-4.7-5-4.7-5,0-6.6c0,0,0,0,0,0C175.4,176.5,175.4,178.7,175.4,180.9L175.4,180.9z"/>
<path class="st7" d="M218.6,146.6c-1.8-2.6-1.3-5.8-2.1-8.7C219.5,140.2,220.2,143.1,218.6,146.6z"/>
<path class="st6" d="M179,80.7c-0.4-0.7-1.4-1.2-0.7-2.2c1.8,0.4,2.9,1.8,4.3,2.9C181.1,82.4,180.1,81.3,179,80.7z"/>
<path class="st2" d="M75,87.2c0,0.7-0.1,1.3-0.1,2c-0.7-0.1-1.3-0.1-2-0.2C73.4,88.1,73.3,86.7,75,87.2z"/>
<path class="st7" d="M103.7,99.8c-1.1,1.1-2.5,0.7-3.8,0.8C100.9,99.2,102.3,99.7,103.7,99.8z"/>
<path class="st6" d="M178.3,78.6c-1.3,0.4-1.9-0.2-2-1.5C177,77.6,177.7,78.1,178.3,78.6z"/>
<path class="st6" d="M185,84.3c-0.9,0.2-1.2-0.1-1-1C184.3,83.6,184.7,84,185,84.3z"/>
<path class="st6" d="M184.1,83.4c-1,0-1.3-0.5-1-1.4C183.4,82.4,183.7,82.9,184.1,83.4z"/>
<path class="st7" d="M216.5,150.4c0.3-0.3,0.6-0.7,0.9-1C217.1,149.7,216.8,150,216.5,150.4z"/>
<path class="st2" d="M201,163.9c-0.1-0.2-0.2-0.4-0.4-0.6c0.2,0.1,0.4,0.3,0.6,0.4C201.3,163.7,201,163.9,201,163.9z"/>
<path class="st2" d="M175.4,181c0.1,0,0.3,0.1,0.4,0.1C175.6,181,175.5,181,175.4,181C175.4,180.9,175.4,181,175.4,181z"/>
<path class="st0" d="M141.9,154.9c7.5-2.6,13-8.6,21.1-5.6c1.7,0.6,3.8,1.3,3.5,3.1c-0.3,1.2-3,2.2-4.3,1.6c-5.1-2-9.5-0.3-14,1.7
	C146.6,156.4,144.6,156.5,141.9,154.9z"/>
<path class="st13" d="M66,189.9c0.4-4.9-2.3-8.4-5.1-11.9c-2.6-3.3-3.5-7-3.1-11.1c0.1-1.1-0.5-2.9,1.6-2.6c1.3,0.2,2.5,1.2,2,2.7
	c-1.8,5.4,1.1,9,4.1,12.8C68,182.8,67.7,186.3,66,189.9z"/>
<path class="st2" d="M169,78.9c2.8,1,3.9,2.1,4.3,4.4C170.8,83.2,170.4,81.3,169,78.9z"/>
<path class="st8" d="M152.4,84.3c-2.5,2.2-5.3,0.4-8,0C147.1,84.3,149.8,84.3,152.4,84.3L152.4,84.3z"/>
<path class="st8" d="M154.3,83.4c0.2-0.2,0.4-0.7,0.6-0.7c1.3,0.1,2-0.9,3.1-1.3c0,0.6,0.2,1.4-0.1,1.8
	C156.8,84.9,155.5,83,154.3,83.4C154.3,83.4,154.3,83.4,154.3,83.4z"/>
<path class="st4" d="M153.4,88.1c-2.6-3.1,1.5-0.9,1.3-1.5C154.4,86.9,153.9,87.5,153.4,88.1C153.3,88.2,153.4,88.1,153.4,88.1z"/>
<path class="st8" d="M152.4,84.3c0.3-1,1.1-0.9,1.9-1c0,0,0,0,0,0C154.3,85,153.2,84.4,152.4,84.3C152.4,84.3,152.4,84.3,152.4,84.3
	z"/>
<path class="st2" d="M167.3,77.3c-0.6-0.5-1.1-0.9-1.7-1.4c0.2-0.2,0.4-0.4,0.6-0.6c0.6,0.4,1.1,0.8,1.7,1.2
	C167.7,76.7,167.5,77,167.3,77.3z"/>
<path class="st2" d="M168,76.5c0.4,0.3,1,0.7,0.3,1.3c-0.1,0.1-0.6-0.3-1-0.5C167.5,77,167.7,76.7,168,76.5z"/>
<path class="st2" d="M165.6,75.9c-0.2-0.3-0.3-0.6-0.5-0.9c0.4,0.1,0.7,0.2,1.1,0.3C166,75.5,165.9,75.7,165.6,75.9z"/>
<path class="st0" d="M204.9,140.9c-1,0.3-1.3,0-1-1C204.6,139.9,204.9,140.3,204.9,140.9z"/>
<path class="st5" d="M158.2,191.5c-0.6,0-1.2,0.1-1.5-0.6c0,0,0.2-0.2,0.4-0.3C157.7,190.5,158.3,190.5,158.2,191.5
	C158.2,191.4,158.2,191.5,158.2,191.5z"/>
<path class="st2" d="M75.9,85.3c0.6,1.1,0.1,1.7-1,2C74.3,86.1,74.8,85.5,75.9,85.3z"/>
</svg>
